<svg id="svglogo" width="1500px" height="200px" viewBox="0 0 1335 195" fill="none" xmlns="http://www.w3.org/2000/svg">
                    <path d="M40.1364 23C39.9545 20.7273 39.1023 18.9545 37.5795 17.6818C36.0795 16.4091 33.7955 15.7727 30.7273 15.7727C28.7727 15.7727 27.1705 16.0114 25.9205 16.4886C24.6932 16.9432 23.7841 17.5682 23.1932 18.3636C22.6023 19.1591 22.2955 20.0682 22.2727 21.0909C22.2273 21.9318 22.375 22.6932 22.7159 23.375C23.0795 24.0341 23.6477 24.6364 24.4205 25.1818C25.1932 25.7045 26.1818 26.1818 27.3864 26.6136C28.5909 27.0455 30.0227 27.4318 31.6818 27.7727L37.4091 29C41.2727 29.8182 44.5795 30.8977 47.3295 32.2386C50.0795 33.5795 52.3295 35.1591 54.0795 36.9773C55.8295 38.7727 57.1136 40.7955 57.9318 43.0455C58.7727 45.2955 59.2045 47.75 59.2273 50.4091C59.2045 55 58.0568 58.8864 55.7841 62.0682C53.5114 65.25 50.2614 67.6705 46.0341 69.3295C41.8295 70.9886 36.7727 71.8182 30.8636 71.8182C24.7955 71.8182 19.5 70.9205 14.9773 69.125C10.4773 67.3295 6.97727 64.5682 4.47727 60.8409C2 57.0909 0.75 52.2955 0.727273 46.4545H18.7273C18.8409 48.5909 19.375 50.3864 20.3295 51.8409C21.2841 53.2955 22.625 54.3977 24.3523 55.1477C26.1023 55.8977 28.1818 56.2727 30.5909 56.2727C32.6136 56.2727 34.3068 56.0227 35.6705 55.5227C37.0341 55.0227 38.0682 54.3295 38.7727 53.4432C39.4773 52.5568 39.8409 51.5455 39.8636 50.4091C39.8409 49.3409 39.4886 48.4091 38.8068 47.6136C38.1477 46.7955 37.0568 46.0682 35.5341 45.4318C34.0114 44.7727 31.9545 44.1591 29.3636 43.5909L22.4091 42.0909C16.2273 40.75 11.3523 38.5114 7.78409 35.375C4.23864 32.2159 2.47727 27.9091 2.5 22.4545C2.47727 18.0227 3.65909 14.1477 6.04545 10.8295C8.45455 7.48863 11.7841 4.88636 16.0341 3.02272C20.3068 1.15909 25.2045 0.22727 30.7273 0.22727C36.3636 0.22727 41.2386 1.17045 45.3523 3.05682C49.4659 4.94318 52.6364 7.60227 54.8636 11.0341C57.1136 14.4432 58.25 18.4318 58.2727 23H40.1364ZM97.9375 18.6364V32.2727H63.4375V18.6364H97.9375ZM70.1193 6.09091H88.9375V54.1591C88.9375 54.8864 89.0625 55.5 89.3125 56C89.5625 56.4773 89.9489 56.8409 90.4716 57.0909C90.9943 57.3182 91.6648 57.4318 92.483 57.4318C93.0511 57.4318 93.7102 57.3636 94.4602 57.2273C95.233 57.0909 95.8011 56.9773 96.1648 56.8864L98.892 70.1136C98.0511 70.3636 96.8466 70.6705 95.2784 71.0341C93.733 71.3977 91.892 71.6364 89.7557 71.75C85.4375 71.9773 81.8125 71.5341 78.8807 70.4205C75.9489 69.2841 73.7443 67.5 72.267 65.0682C70.7898 62.6364 70.0739 59.5909 70.1193 55.9318V6.09091ZM120.207 71.8182C116.866 71.8182 113.912 71.2727 111.344 70.1818C108.798 69.0682 106.798 67.3864 105.344 65.1364C103.889 62.8864 103.162 60.0227 103.162 56.5455C103.162 53.6818 103.651 51.2386 104.628 49.2159C105.605 47.1705 106.969 45.5 108.719 44.2045C110.469 42.9091 112.503 41.9205 114.821 41.2386C117.162 40.5568 119.685 40.1136 122.389 39.9091C125.321 39.6818 127.673 39.4091 129.446 39.0909C131.241 38.75 132.537 38.2841 133.332 37.6932C134.128 37.0795 134.526 36.2727 134.526 35.2727V35.1364C134.526 33.7727 134.003 32.7273 132.957 32C131.912 31.2727 130.571 30.9091 128.935 30.9091C127.139 30.9091 125.673 31.3068 124.537 32.1023C123.423 32.875 122.753 34.0682 122.526 35.6818H105.207C105.435 32.5 106.446 29.5682 108.241 26.8864C110.06 24.1818 112.707 22.0227 116.185 20.4091C119.662 18.7727 124.003 17.9545 129.207 17.9545C132.957 17.9545 136.321 18.3977 139.298 19.2841C142.276 20.1477 144.81 21.3636 146.901 22.9318C148.991 24.4773 150.582 26.2955 151.673 28.3864C152.787 30.4545 153.344 32.7045 153.344 35.1364V71H135.753V63.6364H135.344C134.298 65.5909 133.026 67.1705 131.526 68.375C130.048 69.5795 128.355 70.4545 126.446 71C124.56 71.5455 122.48 71.8182 120.207 71.8182ZM126.344 59.9545C127.776 59.9545 129.116 59.6591 130.366 59.0682C131.639 58.4773 132.673 57.625 133.469 56.5114C134.264 55.3977 134.662 54.0455 134.662 52.4545V48.0909C134.162 48.2955 133.628 48.4886 133.06 48.6705C132.514 48.8523 131.923 49.0227 131.287 49.1818C130.673 49.3409 130.014 49.4886 129.31 49.625C128.628 49.7614 127.912 49.8864 127.162 50C125.707 50.2273 124.514 50.6023 123.582 51.125C122.673 51.625 121.991 52.25 121.537 53C121.105 53.7273 120.889 54.5455 120.889 55.4545C120.889 56.9091 121.401 58.0227 122.423 58.7955C123.446 59.5682 124.753 59.9545 126.344 59.9545ZM162.335 71V18.6364H180.608V28.5909H181.153C182.108 24.9091 183.619 22.2159 185.688 20.5114C187.778 18.8068 190.222 17.9545 193.017 17.9545C193.835 17.9545 194.642 18.0227 195.438 18.1591C196.256 18.2727 197.04 18.4432 197.79 18.6705V34.7273C196.858 34.4091 195.71 34.1705 194.347 34.0114C192.983 33.8523 191.813 33.7727 190.835 33.7727C188.994 33.7727 187.335 34.1932 185.858 35.0341C184.403 35.8523 183.256 37.0114 182.415 38.5114C181.574 39.9886 181.153 41.7273 181.153 43.7273V71H162.335Z" fill="white"/>
                    <path d="M195.5 125V55.1818H214.455V109.727H242.682V125H195.5ZM275.844 125.955C270.162 125.955 265.298 124.83 261.253 122.58C257.207 120.307 254.105 117.148 251.946 113.102C249.787 109.034 248.707 104.318 248.707 98.9545C248.707 93.5909 249.787 88.8864 251.946 84.8409C254.105 80.7727 257.207 77.6136 261.253 75.3636C265.298 73.0909 270.162 71.9545 275.844 71.9545C281.526 71.9545 286.389 73.0909 290.435 75.3636C294.48 77.6136 297.582 80.7727 299.741 84.8409C301.901 88.8864 302.98 93.5909 302.98 98.9545C302.98 104.318 301.901 109.034 299.741 113.102C297.582 117.148 294.48 120.307 290.435 122.58C286.389 124.83 281.526 125.955 275.844 125.955ZM275.98 112.045C277.571 112.045 278.946 111.511 280.105 110.443C281.264 109.375 282.162 107.852 282.798 105.875C283.435 103.898 283.753 101.545 283.753 98.8182C283.753 96.0682 283.435 93.7159 282.798 91.7614C282.162 89.7841 281.264 88.2614 280.105 87.1932C278.946 86.125 277.571 85.5909 275.98 85.5909C274.298 85.5909 272.855 86.125 271.651 87.1932C270.446 88.2614 269.526 89.7841 268.889 91.7614C268.253 93.7159 267.935 96.0682 267.935 98.8182C267.935 101.545 268.253 103.898 268.889 105.875C269.526 107.852 270.446 109.375 271.651 110.443C272.855 111.511 274.298 112.045 275.98 112.045ZM335.844 145.727C330.594 145.727 326.094 144.977 322.344 143.477C318.616 142 315.719 139.955 313.651 137.341C311.605 134.75 310.457 131.773 310.207 128.409H328.344C328.526 129.523 328.98 130.42 329.707 131.102C330.435 131.784 331.366 132.273 332.503 132.568C333.662 132.886 334.957 133.045 336.389 133.045C338.821 133.045 340.832 132.455 342.423 131.273C344.037 130.091 344.844 127.955 344.844 124.864V116H344.298C343.616 117.773 342.571 119.284 341.162 120.534C339.753 121.761 338.06 122.705 336.082 123.364C334.105 124 331.935 124.318 329.571 124.318C325.844 124.318 322.412 123.455 319.276 121.727C316.162 120 313.662 117.261 311.776 113.511C309.912 109.761 308.98 104.864 308.98 98.8182C308.98 92.5 309.957 87.3636 311.912 83.4091C313.889 79.4545 316.435 76.5568 319.548 74.7159C322.685 72.875 325.98 71.9545 329.435 71.9545C332.026 71.9545 334.298 72.4091 336.253 73.3182C338.207 74.2045 339.844 75.3977 341.162 76.8977C342.48 78.375 343.48 80 344.162 81.7727H344.571V72.6364H363.389V124.864C363.389 129.295 362.241 133.057 359.946 136.148C357.673 139.261 354.469 141.636 350.332 143.273C346.196 144.909 341.366 145.727 335.844 145.727ZM336.526 110.955C338.253 110.955 339.73 110.477 340.957 109.523C342.207 108.545 343.162 107.159 343.821 105.364C344.503 103.545 344.844 101.364 344.844 98.8182C344.844 96.2273 344.503 94.0114 343.821 92.1705C343.162 90.3068 342.207 88.8864 340.957 87.9091C339.73 86.9091 338.253 86.4091 336.526 86.4091C334.798 86.4091 333.321 86.9091 332.094 87.9091C330.889 88.8864 329.957 90.3068 329.298 92.1705C328.662 94.0114 328.344 96.2273 328.344 98.8182C328.344 101.409 328.662 103.614 329.298 105.432C329.957 107.227 330.889 108.602 332.094 109.557C333.321 110.489 334.798 110.955 336.526 110.955Z" fill="white"/>
                    <rect x="44" y="84" width="137" height="8" fill="#1BF2D8"/>
                    <path d="M44 85L181 118V127L44 92.5" stroke="#1BF2D8"/>
                    <rect width="137" height="8" transform="matrix(-1 0 0 1 366 26)" fill="#1BF2D8"/>
                    <g filter="url(#filter0_d_0_1)">
                    <rect x="-0.5" y="0.5" width="936" height="27" transform="matrix(-1 0 0 1 1321 27)" stroke="#1BF2D8" stroke-dasharray="10 10" shape-rendering="crispEdges"/>
                    </g>
                    <path d="M366 27L229 60V69L366 34.5" stroke="#1BF2D8"/>
                    <path d="M1323 29L612 154.714V183L1323 55.5" stroke="#1BF2D8" stroke-dasharray="10 10"/>
                    <g filter="url(#filter1_d_0_1)">
                    <path d="M19.7614 179H9.6875V152.818H19.6591C22.3523 152.818 24.679 153.342 26.6392 154.391C28.608 155.43 30.125 156.93 31.1903 158.891C32.2642 160.842 32.8011 163.182 32.8011 165.909C32.8011 168.636 32.2685 170.98 31.2031 172.94C30.1378 174.892 28.6293 176.392 26.6776 177.44C24.7259 178.48 22.4205 179 19.7614 179ZM16.7955 172.966H19.5057C20.8011 172.966 21.9048 172.757 22.8168 172.339C23.7372 171.922 24.4361 171.202 24.9134 170.179C25.3991 169.156 25.642 167.733 25.642 165.909C25.642 164.085 25.3949 162.662 24.9006 161.639C24.4148 160.616 23.6989 159.896 22.7528 159.479C21.8153 159.061 20.6648 158.852 19.3011 158.852H16.7955V172.966ZM45.6012 179.358C43.5046 179.358 41.6978 178.957 40.1808 178.156C38.6722 177.347 37.5089 176.187 36.6907 174.679C35.881 173.162 35.4762 171.347 35.4762 169.233C35.4762 167.205 35.8853 165.432 36.7035 163.915C37.5217 162.398 38.6765 161.217 40.168 160.374C41.6594 159.53 43.4194 159.108 45.4478 159.108C46.9308 159.108 48.2731 159.338 49.4748 159.798C50.6765 160.259 51.7035 160.928 52.5558 161.805C53.408 162.675 54.0643 163.732 54.5245 164.976C54.9847 166.22 55.2148 167.622 55.2148 169.182V170.818H37.6751V166.932H48.7205C48.712 166.369 48.5671 165.875 48.2859 165.449C48.0131 165.014 47.6424 164.678 47.1737 164.439C46.7134 164.192 46.1893 164.068 45.6012 164.068C45.0302 164.068 44.506 164.192 44.0288 164.439C43.5515 164.678 43.168 165.01 42.8782 165.436C42.5969 165.862 42.4478 166.361 42.4308 166.932V171.125C42.4308 171.756 42.5629 172.318 42.8271 172.812C43.0913 173.307 43.4705 173.695 43.9648 173.976C44.4592 174.257 45.0558 174.398 45.7546 174.398C46.2404 174.398 46.6836 174.33 47.0842 174.193C47.4933 174.057 47.8427 173.861 48.1325 173.605C48.4222 173.341 48.6353 173.026 48.7717 172.659H55.2148C54.9933 174.023 54.4691 175.207 53.6424 176.213C52.8157 177.21 51.7205 177.986 50.3569 178.54C49.0018 179.085 47.4165 179.358 45.6012 179.358ZM76.0433 165.756H69.549C69.5149 165.355 69.3743 165.01 69.1271 164.72C68.88 164.43 68.5604 164.209 68.1683 164.055C67.7848 163.893 67.3587 163.812 66.8899 163.812C66.2848 163.812 65.7649 163.923 65.3303 164.145C64.8956 164.366 64.6825 164.682 64.6911 165.091C64.6825 165.381 64.8061 165.649 65.0618 165.896C65.326 166.143 65.8331 166.335 66.5831 166.472L70.5717 167.188C72.5831 167.554 74.0788 168.172 75.059 169.041C76.0476 169.902 76.5462 171.057 76.5547 172.506C76.5462 173.903 76.1286 175.118 75.3018 176.149C74.4837 177.172 73.3629 177.964 71.9396 178.527C70.5249 179.081 68.9098 179.358 67.0945 179.358C64.0945 179.358 61.7464 178.744 60.0504 177.517C58.3629 176.29 57.4212 174.67 57.2251 172.659H64.2308C64.3246 173.281 64.6314 173.763 65.1513 174.104C65.6797 174.436 66.3445 174.602 67.1456 174.602C67.7933 174.602 68.326 174.491 68.7436 174.27C69.1697 174.048 69.3871 173.733 69.3956 173.324C69.3871 172.949 69.1996 172.651 68.8331 172.429C68.4751 172.207 67.9126 172.028 67.1456 171.892L63.6683 171.278C61.6655 170.929 60.1655 170.264 59.1683 169.284C58.1712 168.304 57.6768 167.043 57.6854 165.5C57.6768 164.136 58.0348 162.982 58.7592 162.036C59.4922 161.081 60.5362 160.357 61.8913 159.862C63.255 159.359 64.87 159.108 66.7365 159.108C69.5746 159.108 71.8118 159.696 73.4482 160.872C75.093 162.048 75.9581 163.676 76.0433 165.756ZM88.7188 179.358C86.5881 179.358 84.7642 178.936 83.2472 178.092C81.7301 177.24 80.5668 176.055 79.7571 174.538C78.9474 173.013 78.5426 171.244 78.5426 169.233C78.5426 167.222 78.9474 165.457 79.7571 163.94C80.5668 162.415 81.7301 161.23 83.2472 160.386C84.7642 159.534 86.5881 159.108 88.7188 159.108C90.6449 159.108 92.3111 159.457 93.7173 160.156C95.1321 160.847 96.2273 161.827 97.0028 163.097C97.7784 164.358 98.1705 165.841 98.179 167.545H91.6335C91.5398 166.514 91.2415 165.73 90.7386 165.193C90.2443 164.648 89.6051 164.375 88.821 164.375C88.2074 164.375 87.6705 164.554 87.2102 164.912C86.75 165.261 86.392 165.794 86.1364 166.51C85.8807 167.217 85.7528 168.108 85.7528 169.182C85.7528 170.256 85.8807 171.151 86.1364 171.866C86.392 172.574 86.75 173.107 87.2102 173.464C87.6705 173.814 88.2074 173.989 88.821 173.989C89.3409 173.989 89.8011 173.869 90.2017 173.631C90.6023 173.384 90.9261 173.026 91.1733 172.557C91.429 172.08 91.5824 171.5 91.6335 170.818H98.179C98.1534 172.548 97.7571 174.057 96.9901 175.344C96.223 176.622 95.1364 177.611 93.7301 178.31C92.3324 179.009 90.6619 179.358 88.7188 179.358ZM113.824 170.409V159.364H120.88V179H114.181V175.267H113.977C113.551 176.52 112.805 177.5 111.74 178.207C110.674 178.906 109.409 179.256 107.943 179.256C106.571 179.256 105.369 178.94 104.338 178.31C103.315 177.679 102.518 176.81 101.947 175.702C101.385 174.594 101.099 173.324 101.091 171.892V159.364H108.147V170.409C108.156 171.381 108.403 172.143 108.889 172.697C109.383 173.251 110.074 173.528 110.96 173.528C111.548 173.528 112.055 173.405 112.481 173.158C112.916 172.902 113.248 172.544 113.478 172.084C113.717 171.615 113.832 171.057 113.824 170.409ZM124.367 179V152.818H131.424V162.79H131.526C131.782 162.125 132.157 161.516 132.651 160.962C133.146 160.399 133.759 159.952 134.492 159.619C135.225 159.278 136.077 159.108 137.049 159.108C138.344 159.108 139.576 159.453 140.744 160.143C141.92 160.834 142.874 161.92 143.607 163.403C144.349 164.886 144.719 166.812 144.719 169.182C144.719 171.449 144.366 173.328 143.658 174.82C142.96 176.311 142.022 177.423 140.846 178.156C139.678 178.889 138.396 179.256 136.998 179.256C136.077 179.256 135.255 179.107 134.531 178.808C133.815 178.501 133.201 178.088 132.69 177.568C132.187 177.04 131.799 176.443 131.526 175.778H131.373V179H124.367ZM131.271 169.182C131.271 170.136 131.394 170.963 131.641 171.662C131.897 172.352 132.255 172.889 132.715 173.273C133.184 173.648 133.742 173.835 134.39 173.835C135.038 173.835 135.587 173.652 136.039 173.286C136.499 172.911 136.849 172.378 137.087 171.688C137.335 170.989 137.458 170.153 137.458 169.182C137.458 168.21 137.335 167.379 137.087 166.689C136.849 165.99 136.499 165.457 136.039 165.091C135.587 164.716 135.038 164.528 134.39 164.528C133.742 164.528 133.184 164.716 132.715 165.091C132.255 165.457 131.897 165.99 131.641 166.689C131.394 167.379 131.271 168.21 131.271 169.182ZM147.673 179V159.364H154.525V163.097H154.729C155.087 161.716 155.654 160.706 156.43 160.067C157.214 159.428 158.13 159.108 159.178 159.108C159.485 159.108 159.788 159.134 160.086 159.185C160.393 159.227 160.687 159.291 160.968 159.376V165.398C160.619 165.278 160.188 165.189 159.677 165.129C159.165 165.07 158.727 165.04 158.36 165.04C157.67 165.04 157.048 165.197 156.494 165.513C155.948 165.82 155.518 166.254 155.202 166.817C154.887 167.371 154.729 168.023 154.729 168.773V179H147.673ZM167.839 179.307C166.587 179.307 165.479 179.102 164.516 178.693C163.561 178.276 162.811 177.645 162.266 176.801C161.72 175.957 161.447 174.884 161.447 173.58C161.447 172.506 161.631 171.589 161.997 170.831C162.364 170.064 162.875 169.438 163.531 168.952C164.188 168.466 164.95 168.095 165.82 167.839C166.697 167.584 167.643 167.418 168.658 167.341C169.757 167.256 170.639 167.153 171.304 167.034C171.977 166.906 172.463 166.732 172.761 166.51C173.06 166.28 173.209 165.977 173.209 165.602V165.551C173.209 165.04 173.013 164.648 172.621 164.375C172.229 164.102 171.726 163.966 171.112 163.966C170.439 163.966 169.889 164.115 169.463 164.413C169.045 164.703 168.794 165.151 168.709 165.756H162.214C162.3 164.562 162.679 163.463 163.352 162.457C164.034 161.443 165.027 160.634 166.331 160.028C167.635 159.415 169.263 159.108 171.214 159.108C172.621 159.108 173.882 159.274 174.999 159.607C176.115 159.93 177.065 160.386 177.849 160.974C178.634 161.554 179.23 162.236 179.639 163.02C180.057 163.795 180.266 164.639 180.266 165.551V179H173.669V176.239H173.516C173.124 176.972 172.646 177.564 172.084 178.016C171.53 178.467 170.895 178.795 170.179 179C169.472 179.205 168.692 179.307 167.839 179.307ZM170.141 174.858C170.678 174.858 171.18 174.747 171.649 174.526C172.126 174.304 172.514 173.984 172.812 173.567C173.111 173.149 173.26 172.642 173.26 172.045V170.409C173.072 170.486 172.872 170.558 172.659 170.626C172.455 170.695 172.233 170.759 171.994 170.818C171.764 170.878 171.517 170.933 171.253 170.984C170.997 171.036 170.729 171.082 170.447 171.125C169.902 171.21 169.455 171.351 169.105 171.547C168.764 171.734 168.509 171.969 168.338 172.25C168.176 172.523 168.095 172.83 168.095 173.17C168.095 173.716 168.287 174.134 168.67 174.423C169.054 174.713 169.544 174.858 170.141 174.858ZM190.49 175.42L190.387 176.852C190.302 178.08 190.098 179.256 189.774 180.381C189.458 181.506 189.122 182.503 188.764 183.372C188.414 184.241 188.137 184.915 187.933 185.392H183.586C183.723 184.915 183.914 184.224 184.162 183.321C184.417 182.426 184.647 181.412 184.852 180.278C185.065 179.153 185.172 178.011 185.172 176.852V175.42H190.49ZM209.691 179.358C207.561 179.358 205.737 178.936 204.22 178.092C202.703 177.24 201.539 176.055 200.73 174.538C199.92 173.013 199.515 171.244 199.515 169.233C199.515 167.222 199.92 165.457 200.73 163.94C201.539 162.415 202.703 161.23 204.22 160.386C205.737 159.534 207.561 159.108 209.691 159.108C211.822 159.108 213.646 159.534 215.163 160.386C216.68 161.23 217.843 162.415 218.653 163.94C219.463 165.457 219.868 167.222 219.868 169.233C219.868 171.244 219.463 173.013 218.653 174.538C217.843 176.055 216.68 177.24 215.163 178.092C213.646 178.936 211.822 179.358 209.691 179.358ZM209.743 174.142C210.339 174.142 210.855 173.942 211.289 173.541C211.724 173.141 212.061 172.57 212.299 171.828C212.538 171.087 212.657 170.205 212.657 169.182C212.657 168.151 212.538 167.268 212.299 166.536C212.061 165.794 211.724 165.223 211.289 164.822C210.855 164.422 210.339 164.222 209.743 164.222C209.112 164.222 208.571 164.422 208.119 164.822C207.667 165.223 207.322 165.794 207.083 166.536C206.845 167.268 206.725 168.151 206.725 169.182C206.725 170.205 206.845 171.087 207.083 171.828C207.322 172.57 207.667 173.141 208.119 173.541C208.571 173.942 209.112 174.142 209.743 174.142ZM222.731 179V159.364H229.583V163.097H229.788C230.146 161.716 230.713 160.706 231.488 160.067C232.272 159.428 233.189 159.108 234.237 159.108C234.544 159.108 234.846 159.134 235.145 159.185C235.451 159.227 235.745 159.291 236.027 159.376V165.398C235.677 165.278 235.247 165.189 234.735 165.129C234.224 165.07 233.785 165.04 233.419 165.04C232.728 165.04 232.106 165.197 231.552 165.513C231.007 165.82 230.576 166.254 230.261 166.817C229.946 167.371 229.788 168.023 229.788 168.773V179H222.731ZM246.676 186.773C244.707 186.773 243.02 186.491 241.613 185.929C240.216 185.375 239.129 184.608 238.353 183.628C237.586 182.656 237.156 181.54 237.062 180.278H243.863C243.931 180.696 244.102 181.033 244.375 181.288C244.647 181.544 244.997 181.727 245.423 181.838C245.858 181.957 246.343 182.017 246.88 182.017C247.792 182.017 248.547 181.795 249.143 181.352C249.748 180.909 250.051 180.108 250.051 178.949V175.625H249.846C249.591 176.29 249.199 176.857 248.67 177.325C248.142 177.786 247.507 178.139 246.765 178.386C246.024 178.625 245.21 178.744 244.324 178.744C242.926 178.744 241.639 178.42 240.463 177.773C239.295 177.125 238.358 176.098 237.65 174.692C236.951 173.286 236.602 171.449 236.602 169.182C236.602 166.812 236.968 164.886 237.701 163.403C238.443 161.92 239.397 160.834 240.565 160.143C241.741 159.453 242.977 159.108 244.272 159.108C245.244 159.108 246.096 159.278 246.829 159.619C247.562 159.952 248.176 160.399 248.67 160.962C249.164 161.516 249.539 162.125 249.795 162.79H249.949V159.364H257.005V178.949C257.005 180.611 256.575 182.021 255.714 183.18C254.862 184.348 253.66 185.239 252.109 185.852C250.558 186.466 248.747 186.773 246.676 186.773ZM246.931 173.733C247.579 173.733 248.133 173.554 248.593 173.196C249.062 172.83 249.42 172.31 249.667 171.636C249.923 170.955 250.051 170.136 250.051 169.182C250.051 168.21 249.923 167.379 249.667 166.689C249.42 165.99 249.062 165.457 248.593 165.091C248.133 164.716 247.579 164.528 246.931 164.528C246.284 164.528 245.73 164.716 245.27 165.091C244.818 165.457 244.468 165.99 244.221 166.689C243.983 167.379 243.863 168.21 243.863 169.182C243.863 170.153 243.983 170.98 244.221 171.662C244.468 172.335 244.818 172.851 245.27 173.209C245.73 173.558 246.284 173.733 246.931 173.733ZM266.066 179.307C264.813 179.307 263.705 179.102 262.742 178.693C261.788 178.276 261.038 177.645 260.492 176.801C259.947 175.957 259.674 174.884 259.674 173.58C259.674 172.506 259.857 171.589 260.224 170.831C260.59 170.064 261.102 169.438 261.758 168.952C262.414 168.466 263.177 168.095 264.046 167.839C264.924 167.584 265.87 167.418 266.884 167.341C267.984 167.256 268.866 167.153 269.531 167.034C270.204 166.906 270.69 166.732 270.988 166.51C271.286 166.28 271.435 165.977 271.435 165.602V165.551C271.435 165.04 271.239 164.648 270.847 164.375C270.455 164.102 269.952 163.966 269.339 163.966C268.665 163.966 268.116 164.115 267.69 164.413C267.272 164.703 267.021 165.151 266.935 165.756H260.441C260.526 164.562 260.906 163.463 261.579 162.457C262.261 161.443 263.254 160.634 264.558 160.028C265.862 159.415 267.489 159.108 269.441 159.108C270.847 159.108 272.109 159.274 273.225 159.607C274.342 159.93 275.292 160.386 276.076 160.974C276.86 161.554 277.457 162.236 277.866 163.02C278.283 163.795 278.492 164.639 278.492 165.551V179H271.896V176.239H271.742C271.35 176.972 270.873 177.564 270.31 178.016C269.756 178.467 269.121 178.795 268.406 179C267.698 179.205 266.918 179.307 266.066 179.307ZM268.367 174.858C268.904 174.858 269.407 174.747 269.876 174.526C270.353 174.304 270.741 173.984 271.039 173.567C271.337 173.149 271.487 172.642 271.487 172.045V170.409C271.299 170.486 271.099 170.558 270.886 170.626C270.681 170.695 270.46 170.759 270.221 170.818C269.991 170.878 269.744 170.933 269.479 170.984C269.224 171.036 268.955 171.082 268.674 171.125C268.129 171.21 267.681 171.351 267.332 171.547C266.991 171.734 266.735 171.969 266.565 172.25C266.403 172.523 266.322 172.83 266.322 173.17C266.322 173.716 266.513 174.134 266.897 174.423C267.281 174.713 267.771 174.858 268.367 174.858ZM288.921 167.955V179H281.864V159.364H288.563V163.097H288.767C289.194 161.852 289.944 160.876 291.017 160.169C292.1 159.462 293.361 159.108 294.801 159.108C296.191 159.108 297.397 159.428 298.419 160.067C299.451 160.697 300.248 161.567 300.81 162.675C301.381 163.783 301.662 165.048 301.654 166.472V179H294.597V167.955C294.605 166.983 294.358 166.22 293.855 165.666C293.361 165.112 292.671 164.835 291.784 164.835C291.205 164.835 290.698 164.963 290.263 165.219C289.837 165.466 289.509 165.824 289.279 166.293C289.049 166.753 288.929 167.307 288.921 167.955ZM305.137 179V159.364H312.194V179H305.137ZM308.666 157.318C307.711 157.318 306.893 157.003 306.211 156.372C305.529 155.741 305.189 154.983 305.189 154.097C305.189 153.21 305.529 152.452 306.211 151.821C306.893 151.19 307.711 150.875 308.666 150.875C309.629 150.875 310.447 151.19 311.12 151.821C311.802 152.452 312.143 153.21 312.143 154.097C312.143 154.983 311.802 155.741 311.12 156.372C310.447 157.003 309.629 157.318 308.666 157.318ZM315.994 179V175.114L324.585 164.835V164.733H316.301V159.364H332.92V163.659L325.097 173.528V173.631H333.227V179H315.994ZM345.976 179.358C343.88 179.358 342.073 178.957 340.556 178.156C339.047 177.347 337.884 176.187 337.066 174.679C336.256 173.162 335.851 171.347 335.851 169.233C335.851 167.205 336.26 165.432 337.078 163.915C337.897 162.398 339.051 161.217 340.543 160.374C342.034 159.53 343.794 159.108 345.823 159.108C347.306 159.108 348.648 159.338 349.85 159.798C351.051 160.259 352.078 160.928 352.931 161.805C353.783 162.675 354.439 163.732 354.9 164.976C355.36 166.22 355.59 167.622 355.59 169.182V170.818H338.05V166.932H349.096C349.087 166.369 348.942 165.875 348.661 165.449C348.388 165.014 348.017 164.678 347.549 164.439C347.088 164.192 346.564 164.068 345.976 164.068C345.405 164.068 344.881 164.192 344.404 164.439C343.926 164.678 343.543 165.01 343.253 165.436C342.972 165.862 342.823 166.361 342.806 166.932V171.125C342.806 171.756 342.938 172.318 343.202 172.812C343.466 173.307 343.846 173.695 344.34 173.976C344.834 174.257 345.431 174.398 346.13 174.398C346.615 174.398 347.059 174.33 347.459 174.193C347.868 174.057 348.218 173.861 348.507 173.605C348.797 173.341 349.01 173.026 349.147 172.659H355.59C355.368 174.023 354.844 175.207 354.017 176.213C353.191 177.21 352.096 177.986 350.732 178.54C349.377 179.085 347.792 179.358 345.976 179.358ZM365.322 175.42L365.219 176.852C365.134 178.08 364.93 179.256 364.606 180.381C364.29 181.506 363.954 182.503 363.596 183.372C363.246 184.241 362.969 184.915 362.765 185.392H358.418C358.555 184.915 358.746 184.224 358.994 183.321C359.249 182.426 359.479 181.412 359.684 180.278C359.897 179.153 360.004 178.011 360.004 176.852V175.42H365.322ZM380.535 179.307C379.282 179.307 378.174 179.102 377.211 178.693C376.256 178.276 375.506 177.645 374.961 176.801C374.415 175.957 374.143 174.884 374.143 173.58C374.143 172.506 374.326 171.589 374.692 170.831C375.059 170.064 375.57 169.438 376.227 168.952C376.883 168.466 377.646 168.095 378.515 167.839C379.393 167.584 380.339 167.418 381.353 167.341C382.452 167.256 383.335 167.153 383.999 167.034C384.673 166.906 385.158 166.732 385.457 166.51C385.755 166.28 385.904 165.977 385.904 165.602V165.551C385.904 165.04 385.708 164.648 385.316 164.375C384.924 164.102 384.421 163.966 383.808 163.966C383.134 163.966 382.585 164.115 382.158 164.413C381.741 164.703 381.489 165.151 381.404 165.756H374.91C374.995 164.562 375.374 163.463 376.048 162.457C376.729 161.443 377.722 160.634 379.026 160.028C380.33 159.415 381.958 159.108 383.91 159.108C385.316 159.108 386.577 159.274 387.694 159.607C388.81 159.93 389.761 160.386 390.545 160.974C391.329 161.554 391.925 162.236 392.335 163.02C392.752 163.795 392.961 164.639 392.961 165.551V179H386.364V176.239H386.211C385.819 176.972 385.342 177.564 384.779 178.016C384.225 178.467 383.59 178.795 382.874 179C382.167 179.205 381.387 179.307 380.535 179.307ZM382.836 174.858C383.373 174.858 383.876 174.747 384.344 174.526C384.822 174.304 385.21 173.984 385.508 173.567C385.806 173.149 385.955 172.642 385.955 172.045V170.409C385.768 170.486 385.567 170.558 385.354 170.626C385.15 170.695 384.928 170.759 384.69 170.818C384.46 170.878 384.212 170.933 383.948 170.984C383.692 171.036 383.424 171.082 383.143 171.125C382.597 171.21 382.15 171.351 381.8 171.547C381.46 171.734 381.204 171.969 381.033 172.25C380.871 172.523 380.79 172.83 380.79 173.17C380.79 173.716 380.982 174.134 381.366 174.423C381.749 174.713 382.239 174.858 382.836 174.858ZM415.419 159.364L408.823 179H400.641L394.044 159.364H401.459L404.63 172.352H404.834L408.005 159.364H415.419ZM422.406 179.307C421.153 179.307 420.045 179.102 419.082 178.693C418.127 178.276 417.377 177.645 416.832 176.801C416.287 175.957 416.014 174.884 416.014 173.58C416.014 172.506 416.197 171.589 416.564 170.831C416.93 170.064 417.441 169.438 418.098 168.952C418.754 168.466 419.517 168.095 420.386 167.839C421.264 167.584 422.21 167.418 423.224 167.341C424.324 167.256 425.206 167.153 425.87 167.034C426.544 166.906 427.029 166.732 427.328 166.51C427.626 166.28 427.775 165.977 427.775 165.602V165.551C427.775 165.04 427.579 164.648 427.187 164.375C426.795 164.102 426.292 163.966 425.679 163.966C425.005 163.966 424.456 164.115 424.029 164.413C423.612 164.703 423.36 165.151 423.275 165.756H416.781C416.866 164.562 417.245 163.463 417.919 162.457C418.6 161.443 419.593 160.634 420.897 160.028C422.201 159.415 423.829 159.108 425.781 159.108C427.187 159.108 428.449 159.274 429.565 159.607C430.681 159.93 431.632 160.386 432.416 160.974C433.2 161.554 433.797 162.236 434.206 163.02C434.623 163.795 434.832 164.639 434.832 165.551V179H428.235V176.239H428.082C427.69 176.972 427.213 177.564 426.65 178.016C426.096 178.467 425.461 178.795 424.745 179C424.038 179.205 423.258 179.307 422.406 179.307ZM424.707 174.858C425.244 174.858 425.747 174.747 426.216 174.526C426.693 174.304 427.081 173.984 427.379 173.567C427.677 173.149 427.826 172.642 427.826 172.045V170.409C427.639 170.486 427.439 170.558 427.225 170.626C427.021 170.695 426.799 170.759 426.561 170.818C426.331 170.878 426.083 170.933 425.819 170.984C425.564 171.036 425.295 171.082 425.014 171.125C424.468 171.21 424.021 171.351 423.672 171.547C423.331 171.734 423.075 171.969 422.904 172.25C422.743 172.523 422.662 172.83 422.662 173.17C422.662 173.716 422.853 174.134 423.237 174.423C423.62 174.713 424.11 174.858 424.707 174.858ZM445.261 152.818V179H438.204V152.818H445.261ZM448.856 179V159.364H455.913V179H448.856ZM452.385 157.318C451.43 157.318 450.612 157.003 449.93 156.372C449.248 155.741 448.907 154.983 448.907 154.097C448.907 153.21 449.248 152.452 449.93 151.821C450.612 151.19 451.43 150.875 452.385 150.875C453.348 150.875 454.166 151.19 454.839 151.821C455.521 152.452 455.862 153.21 455.862 154.097C455.862 154.983 455.521 155.741 454.839 156.372C454.166 157.003 453.348 157.318 452.385 157.318ZM468.918 179.358C466.821 179.358 465.014 178.957 463.497 178.156C461.989 177.347 460.825 176.187 460.007 174.679C459.197 173.162 458.793 171.347 458.793 169.233C458.793 167.205 459.202 165.432 460.02 163.915C460.838 162.398 461.993 161.217 463.484 160.374C464.976 159.53 466.736 159.108 468.764 159.108C470.247 159.108 471.589 159.338 472.791 159.798C473.993 160.259 475.02 160.928 475.872 161.805C476.724 162.675 477.381 163.732 477.841 164.976C478.301 166.22 478.531 167.622 478.531 169.182V170.818H460.991V166.932H472.037C472.028 166.369 471.884 165.875 471.602 165.449C471.33 165.014 470.959 164.678 470.49 164.439C470.03 164.192 469.506 164.068 468.918 164.068C468.347 164.068 467.822 164.192 467.345 164.439C466.868 164.678 466.484 165.01 466.195 165.436C465.913 165.862 465.764 166.361 465.747 166.932V171.125C465.747 171.756 465.879 172.318 466.143 172.812C466.408 173.307 466.787 173.695 467.281 173.976C467.776 174.257 468.372 174.398 469.071 174.398C469.557 174.398 470 174.33 470.401 174.193C470.81 174.057 471.159 173.861 471.449 173.605C471.739 173.341 471.952 173.026 472.088 172.659H478.531C478.31 174.023 477.786 175.207 476.959 176.213C476.132 177.21 475.037 177.986 473.673 178.54C472.318 179.085 470.733 179.358 468.918 179.358ZM488.583 159.364H495.64V179.665C495.64 181.386 495.277 182.733 494.553 183.705C493.837 184.676 492.831 185.362 491.536 185.763C490.24 186.163 488.728 186.364 486.998 186.364C486.742 186.364 486.507 186.359 486.294 186.351C486.073 186.342 485.83 186.33 485.566 186.312V181.097C485.736 181.114 485.885 181.126 486.013 181.135C486.132 181.143 486.256 181.148 486.384 181.148C487.228 181.148 487.803 181.016 488.11 180.751C488.425 180.496 488.583 180.082 488.583 179.511V159.364ZM492.111 157.318C491.157 157.318 490.338 157.003 489.657 156.372C488.975 155.741 488.634 154.983 488.634 154.097C488.634 153.21 488.975 152.452 489.657 151.821C490.338 151.19 491.157 150.875 492.111 150.875C493.074 150.875 493.892 151.19 494.566 151.821C495.248 152.452 495.588 153.21 495.588 154.097C495.588 154.983 495.248 155.741 494.566 156.372C493.892 157.003 493.074 157.318 492.111 157.318ZM508.695 179.358C506.565 179.358 504.741 178.936 503.224 178.092C501.707 177.24 500.543 176.055 499.734 174.538C498.924 173.013 498.519 171.244 498.519 169.233C498.519 167.222 498.924 165.457 499.734 163.94C500.543 162.415 501.707 161.23 503.224 160.386C504.741 159.534 506.565 159.108 508.695 159.108C510.826 159.108 512.65 159.534 514.167 160.386C515.684 161.23 516.847 162.415 517.657 163.94C518.467 165.457 518.871 167.222 518.871 169.233C518.871 171.244 518.467 173.013 517.657 174.538C516.847 176.055 515.684 177.24 514.167 178.092C512.65 178.936 510.826 179.358 508.695 179.358ZM508.746 174.142C509.343 174.142 509.859 173.942 510.293 173.541C510.728 173.141 511.065 172.57 511.303 171.828C511.542 171.087 511.661 170.205 511.661 169.182C511.661 168.151 511.542 167.268 511.303 166.536C511.065 165.794 510.728 165.223 510.293 164.822C509.859 164.422 509.343 164.222 508.746 164.222C508.116 164.222 507.575 164.422 507.123 164.822C506.671 165.223 506.326 165.794 506.087 166.536C505.849 167.268 505.729 168.151 505.729 169.182C505.729 170.205 505.849 171.087 506.087 171.828C506.326 172.57 506.671 173.141 507.123 173.541C507.575 173.942 508.116 174.142 508.746 174.142ZM531.195 186.773C529.227 186.773 527.539 186.491 526.133 185.929C524.735 185.375 523.648 184.608 522.873 183.628C522.106 182.656 521.675 181.54 521.582 180.278H528.383C528.451 180.696 528.621 181.033 528.894 181.288C529.167 181.544 529.516 181.727 529.942 181.838C530.377 181.957 530.863 182.017 531.4 182.017C532.312 182.017 533.066 181.795 533.663 181.352C534.268 180.909 534.57 180.108 534.57 178.949V175.625H534.366C534.11 176.29 533.718 176.857 533.19 177.325C532.661 177.786 532.026 178.139 531.285 178.386C530.543 178.625 529.729 178.744 528.843 178.744C527.445 178.744 526.158 178.42 524.982 177.773C523.815 177.125 522.877 176.098 522.17 174.692C521.471 173.286 521.121 171.449 521.121 169.182C521.121 166.812 521.488 164.886 522.221 163.403C522.962 161.92 523.917 160.834 525.085 160.143C526.261 159.453 527.496 159.108 528.792 159.108C529.763 159.108 530.616 159.278 531.349 159.619C532.082 159.952 532.695 160.399 533.19 160.962C533.684 161.516 534.059 162.125 534.315 162.79H534.468V159.364H541.525V178.949C541.525 180.611 541.094 182.021 540.234 183.18C539.381 184.348 538.18 185.239 536.629 185.852C535.077 186.466 533.266 186.773 531.195 186.773ZM531.451 173.733C532.099 173.733 532.653 173.554 533.113 173.196C533.582 172.83 533.94 172.31 534.187 171.636C534.442 170.955 534.57 170.136 534.57 169.182C534.57 168.21 534.442 167.379 534.187 166.689C533.94 165.99 533.582 165.457 533.113 165.091C532.653 164.716 532.099 164.528 531.451 164.528C530.803 164.528 530.249 164.716 529.789 165.091C529.337 165.457 528.988 165.99 528.741 166.689C528.502 167.379 528.383 168.21 528.383 169.182C528.383 170.153 528.502 170.98 528.741 171.662C528.988 172.335 529.337 172.851 529.789 173.209C530.249 173.558 530.803 173.733 531.451 173.733ZM554.574 179.358C552.444 179.358 550.62 178.936 549.103 178.092C547.586 177.24 546.422 176.055 545.613 174.538C544.803 173.013 544.398 171.244 544.398 169.233C544.398 167.222 544.803 165.457 545.613 163.94C546.422 162.415 547.586 161.23 549.103 160.386C550.62 159.534 552.444 159.108 554.574 159.108C556.705 159.108 558.529 159.534 560.046 160.386C561.563 161.23 562.726 162.415 563.536 163.94C564.346 165.457 564.75 167.222 564.75 169.233C564.75 171.244 564.346 173.013 563.536 174.538C562.726 176.055 561.563 177.24 560.046 178.092C558.529 178.936 556.705 179.358 554.574 179.358ZM554.625 174.142C555.222 174.142 555.738 173.942 556.172 173.541C556.607 173.141 556.944 172.57 557.182 171.828C557.421 171.087 557.54 170.205 557.54 169.182C557.54 168.151 557.421 167.268 557.182 166.536C556.944 165.794 556.607 165.223 556.172 164.822C555.738 164.422 555.222 164.222 554.625 164.222C553.995 164.222 553.453 164.422 553.002 164.822C552.55 165.223 552.205 165.794 551.966 166.536C551.728 167.268 551.608 168.151 551.608 169.182C551.608 170.205 551.728 171.087 551.966 171.828C552.205 172.57 552.55 173.141 553.002 173.541C553.453 173.942 553.995 174.142 554.625 174.142ZM585.563 165.756H579.069C579.034 165.355 578.894 165.01 578.647 164.72C578.4 164.43 578.08 164.209 577.688 164.055C577.304 163.893 576.878 163.812 576.409 163.812C575.804 163.812 575.284 163.923 574.85 164.145C574.415 164.366 574.202 164.682 574.211 165.091C574.202 165.381 574.326 165.649 574.581 165.896C574.846 166.143 575.353 166.335 576.103 166.472L580.091 167.188C582.103 167.554 583.598 168.172 584.578 169.041C585.567 169.902 586.066 171.057 586.074 172.506C586.066 173.903 585.648 175.118 584.821 176.149C584.003 177.172 582.882 177.964 581.459 178.527C580.044 179.081 578.429 179.358 576.614 179.358C573.614 179.358 571.266 178.744 569.57 177.517C567.882 176.29 566.941 174.67 566.745 172.659H573.75C573.844 173.281 574.151 173.763 574.671 174.104C575.199 174.436 575.864 174.602 576.665 174.602C577.313 174.602 577.846 174.491 578.263 174.27C578.689 174.048 578.907 173.733 578.915 173.324C578.907 172.949 578.719 172.651 578.353 172.429C577.995 172.207 577.432 172.028 576.665 171.892L573.188 171.278C571.185 170.929 569.685 170.264 568.688 169.284C567.691 168.304 567.196 167.043 567.205 165.5C567.196 164.136 567.554 162.982 568.279 162.036C569.012 161.081 570.056 160.357 571.411 159.862C572.775 159.359 574.39 159.108 576.256 159.108C579.094 159.108 581.331 159.696 582.968 160.872C584.613 162.048 585.478 163.676 585.563 165.756ZM592.613 179.409C591.625 179.409 590.777 179.064 590.069 178.374C589.37 177.675 589.025 176.827 589.034 175.83C589.025 174.858 589.37 174.027 590.069 173.337C590.777 172.646 591.625 172.301 592.613 172.301C593.551 172.301 594.377 172.646 595.093 173.337C595.818 174.027 596.184 174.858 596.193 175.83C596.184 176.494 596.01 177.099 595.669 177.645C595.336 178.182 594.902 178.612 594.365 178.936C593.828 179.251 593.244 179.409 592.613 179.409Z" fill="#1BF2D8"/>
                    </g>
                    <defs>
                    <filter id="filter0_d_0_1" x="372" y="18" width="963" height="54" filterUnits="userSpaceOnUse" color-interpolation-filters="sRGB">
                    <feFlood flood-opacity="0" result="BackgroundImageFix"/>
                    <feColorMatrix in="SourceAlpha" type="matrix" values="0 0 0 0 0 0 0 0 0 0 0 0 0 0 0 0 0 0 127 0" result="hardAlpha"/>
                    <feMorphology radius="3" operator="dilate" in="SourceAlpha" result="effect1_dropShadow_0_1"/>
                    <feOffset dy="4"/>
                    <feGaussianBlur stdDeviation="5"/>
                    <feComposite in2="hardAlpha" operator="out"/>
                    <feColorMatrix type="matrix" values="0 0 0 0 0 0 0 0 0 0 0 0 0 0 0 0 0 0 0.25 0"/>
                    <feBlend mode="normal" in2="BackgroundImageFix" result="effect1_dropShadow_0_1"/>
                    <feBlend mode="normal" in="SourceGraphic" in2="effect1_dropShadow_0_1" result="shape"/>
                    </filter>
                    <filter id="filter1_d_0_1" x="5.6875" y="150.875" width="594.505" height="43.8984" filterUnits="userSpaceOnUse" color-interpolation-filters="sRGB">
                    <feFlood flood-opacity="0" result="BackgroundImageFix"/>
                    <feColorMatrix in="SourceAlpha" type="matrix" values="0 0 0 0 0 0 0 0 0 0 0 0 0 0 0 0 0 0 127 0" result="hardAlpha"/>
                    <feOffset dy="4"/>
                    <feGaussianBlur stdDeviation="2"/>
                    <feComposite in2="hardAlpha" operator="out"/>
                    <feColorMatrix type="matrix" values="0 0 0 0 0.97 0 0 0 0 0.97 0 0 0 0 0.97 0 0 0 0.25 0"/>
                    <feBlend mode="normal" in2="BackgroundImageFix" result="effect1_dropShadow_0_1"/>
                    <feBlend mode="normal" in="SourceGraphic" in2="effect1_dropShadow_0_1" result="shape"/>
                    </filter>
                    </defs>
            </svg>