<svg width="473" height="199" viewBox="0 0 473 199" fill="none" xmlns="http://www.w3.org/2000/svg">
            <path d="M42.1364 45C41.9545 42.7273 41.1023 40.9545 39.5795 39.6818C38.0795 38.4091 35.7955 37.7727 32.7273 37.7727C30.7727 37.7727 29.1705 38.0114 27.9205 38.4886C26.6932 38.9432 25.7841 39.5682 25.1932 40.3636C24.6023 41.1591 24.2955 42.0682 24.2727 43.0909C24.2273 43.9318 24.375 44.6932 24.7159 45.375C25.0795 46.0341 25.6477 46.6364 26.4205 47.1818C27.1932 47.7045 28.1818 48.1818 29.3864 48.6136C30.5909 49.0455 32.0227 49.4318 33.6818 49.7727L39.4091 51C43.2727 51.8182 46.5795 52.8977 49.3295 54.2386C52.0795 55.5795 54.3295 57.1591 56.0795 58.9773C57.8295 60.7727 59.1136 62.7955 59.9318 65.0455C60.7727 67.2955 61.2045 69.75 61.2273 72.4091C61.2045 77 60.0568 80.8864 57.7841 84.0682C55.5114 87.25 52.2614 89.6705 48.0341 91.3295C43.8295 92.9886 38.7727 93.8182 32.8636 93.8182C26.7955 93.8182 21.5 92.9205 16.9773 91.125C12.4773 89.3295 8.97727 86.5682 6.47727 82.8409C4 79.0909 2.75 74.2955 2.72727 68.4545H20.7273C20.8409 70.5909 21.375 72.3864 22.3295 73.8409C23.2841 75.2955 24.625 76.3977 26.3523 77.1477C28.1023 77.8977 30.1818 78.2727 32.5909 78.2727C34.6136 78.2727 36.3068 78.0227 37.6705 77.5227C39.0341 77.0227 40.0682 76.3295 40.7727 75.4432C41.4773 74.5568 41.8409 73.5455 41.8636 72.4091C41.8409 71.3409 41.4886 70.4091 40.8068 69.6136C40.1477 68.7955 39.0568 68.0682 37.5341 67.4318C36.0114 66.7727 33.9545 66.1591 31.3636 65.5909L24.4091 64.0909C18.2273 62.75 13.3523 60.5114 9.78409 57.375C6.23864 54.2159 4.47727 49.9091 4.5 44.4545C4.47727 40.0227 5.65909 36.1477 8.04545 32.8295C10.4545 29.4886 13.7841 26.8864 18.0341 25.0227C22.3068 23.1591 27.2045 22.2273 32.7273 22.2273C38.3636 22.2273 43.2386 23.1705 47.3523 25.0568C51.4659 26.9432 54.6364 29.6023 56.8636 33.0341C59.1136 36.4432 60.25 40.4318 60.2727 45H42.1364ZM99.9375 40.6364V54.2727H65.4375V40.6364H99.9375ZM72.1193 28.0909H90.9375V76.1591C90.9375 76.8864 91.0625 77.5 91.3125 78C91.5625 78.4773 91.9489 78.8409 92.4716 79.0909C92.9943 79.3182 93.6648 79.4318 94.483 79.4318C95.0511 79.4318 95.7102 79.3636 96.4602 79.2273C97.233 79.0909 97.8011 78.9773 98.1648 78.8864L100.892 92.1136C100.051 92.3636 98.8466 92.6705 97.2784 93.0341C95.733 93.3977 93.892 93.6364 91.7557 93.75C87.4375 93.9773 83.8125 93.5341 80.8807 92.4205C77.9489 91.2841 75.7443 89.5 74.267 87.0682C72.7898 84.6364 72.0739 81.5909 72.1193 77.9318V28.0909ZM122.207 93.8182C118.866 93.8182 115.912 93.2727 113.344 92.1818C110.798 91.0682 108.798 89.3864 107.344 87.1364C105.889 84.8864 105.162 82.0227 105.162 78.5455C105.162 75.6818 105.651 73.2386 106.628 71.2159C107.605 69.1705 108.969 67.5 110.719 66.2045C112.469 64.9091 114.503 63.9205 116.821 63.2386C119.162 62.5568 121.685 62.1136 124.389 61.9091C127.321 61.6818 129.673 61.4091 131.446 61.0909C133.241 60.75 134.537 60.2841 135.332 59.6932C136.128 59.0795 136.526 58.2727 136.526 57.2727V57.1364C136.526 55.7727 136.003 54.7273 134.957 54C133.912 53.2727 132.571 52.9091 130.935 52.9091C129.139 52.9091 127.673 53.3068 126.537 54.1023C125.423 54.875 124.753 56.0682 124.526 57.6818H107.207C107.435 54.5 108.446 51.5682 110.241 48.8864C112.06 46.1818 114.707 44.0227 118.185 42.4091C121.662 40.7727 126.003 39.9545 131.207 39.9545C134.957 39.9545 138.321 40.3977 141.298 41.2841C144.276 42.1477 146.81 43.3636 148.901 44.9318C150.991 46.4773 152.582 48.2955 153.673 50.3864C154.787 52.4545 155.344 54.7045 155.344 57.1364V93H137.753V85.6364H137.344C136.298 87.5909 135.026 89.1705 133.526 90.375C132.048 91.5795 130.355 92.4545 128.446 93C126.56 93.5455 124.48 93.8182 122.207 93.8182ZM128.344 81.9545C129.776 81.9545 131.116 81.6591 132.366 81.0682C133.639 80.4773 134.673 79.625 135.469 78.5114C136.264 77.3977 136.662 76.0455 136.662 74.4545V70.0909C136.162 70.2955 135.628 70.4886 135.06 70.6705C134.514 70.8523 133.923 71.0227 133.287 71.1818C132.673 71.3409 132.014 71.4886 131.31 71.625C130.628 71.7614 129.912 71.8864 129.162 72C127.707 72.2273 126.514 72.6023 125.582 73.125C124.673 73.625 123.991 74.25 123.537 75C123.105 75.7273 122.889 76.5455 122.889 77.4545C122.889 78.9091 123.401 80.0227 124.423 80.7955C125.446 81.5682 126.753 81.9545 128.344 81.9545ZM164.335 93V40.6364H182.608V50.5909H183.153C184.108 46.9091 185.619 44.2159 187.688 42.5114C189.778 40.8068 192.222 39.9545 195.017 39.9545C195.835 39.9545 196.642 40.0227 197.438 40.1591C198.256 40.2727 199.04 40.4432 199.79 40.6705V56.7273C198.858 56.4091 197.71 56.1705 196.347 56.0114C194.983 55.8523 193.813 55.7727 192.835 55.7727C190.994 55.7727 189.335 56.1932 187.858 57.0341C186.403 57.8523 185.256 59.0114 184.415 60.5114C183.574 61.9886 183.153 63.7273 183.153 65.7273V93H164.335Z" fill="white"/>
            <path d="M197.5 147V77.1818H216.455V131.727H244.682V147H197.5ZM277.844 147.955C272.162 147.955 267.298 146.83 263.253 144.58C259.207 142.307 256.105 139.148 253.946 135.102C251.787 131.034 250.707 126.318 250.707 120.955C250.707 115.591 251.787 110.886 253.946 106.841C256.105 102.773 259.207 99.6136 263.253 97.3636C267.298 95.0909 272.162 93.9545 277.844 93.9545C283.526 93.9545 288.389 95.0909 292.435 97.3636C296.48 99.6136 299.582 102.773 301.741 106.841C303.901 110.886 304.98 115.591 304.98 120.955C304.98 126.318 303.901 131.034 301.741 135.102C299.582 139.148 296.48 142.307 292.435 144.58C288.389 146.83 283.526 147.955 277.844 147.955ZM277.98 134.045C279.571 134.045 280.946 133.511 282.105 132.443C283.264 131.375 284.162 129.852 284.798 127.875C285.435 125.898 285.753 123.545 285.753 120.818C285.753 118.068 285.435 115.716 284.798 113.761C284.162 111.784 283.264 110.261 282.105 109.193C280.946 108.125 279.571 107.591 277.98 107.591C276.298 107.591 274.855 108.125 273.651 109.193C272.446 110.261 271.526 111.784 270.889 113.761C270.253 115.716 269.935 118.068 269.935 120.818C269.935 123.545 270.253 125.898 270.889 127.875C271.526 129.852 272.446 131.375 273.651 132.443C274.855 133.511 276.298 134.045 277.98 134.045ZM337.844 167.727C332.594 167.727 328.094 166.977 324.344 165.477C320.616 164 317.719 161.955 315.651 159.341C313.605 156.75 312.457 153.773 312.207 150.409H330.344C330.526 151.523 330.98 152.42 331.707 153.102C332.435 153.784 333.366 154.273 334.503 154.568C335.662 154.886 336.957 155.045 338.389 155.045C340.821 155.045 342.832 154.455 344.423 153.273C346.037 152.091 346.844 149.955 346.844 146.864V138H346.298C345.616 139.773 344.571 141.284 343.162 142.534C341.753 143.761 340.06 144.705 338.082 145.364C336.105 146 333.935 146.318 331.571 146.318C327.844 146.318 324.412 145.455 321.276 143.727C318.162 142 315.662 139.261 313.776 135.511C311.912 131.761 310.98 126.864 310.98 120.818C310.98 114.5 311.957 109.364 313.912 105.409C315.889 101.455 318.435 98.5568 321.548 96.7159C324.685 94.875 327.98 93.9545 331.435 93.9545C334.026 93.9545 336.298 94.4091 338.253 95.3182C340.207 96.2045 341.844 97.3977 343.162 98.8977C344.48 100.375 345.48 102 346.162 103.773H346.571V94.6364H365.389V146.864C365.389 151.295 364.241 155.057 361.946 158.148C359.673 161.261 356.469 163.636 352.332 165.273C348.196 166.909 343.366 167.727 337.844 167.727ZM338.526 132.955C340.253 132.955 341.73 132.477 342.957 131.523C344.207 130.545 345.162 129.159 345.821 127.364C346.503 125.545 346.844 123.364 346.844 120.818C346.844 118.227 346.503 116.011 345.821 114.17C345.162 112.307 344.207 110.886 342.957 109.909C341.73 108.909 340.253 108.409 338.526 108.409C336.798 108.409 335.321 108.909 334.094 109.909C332.889 110.886 331.957 112.307 331.298 114.17C330.662 116.011 330.344 118.227 330.344 120.818C330.344 123.409 330.662 125.614 331.298 127.432C331.957 129.227 332.889 130.602 334.094 131.557C335.321 132.489 336.798 132.955 338.526 132.955Z" fill="white"/>
            <rect x="46" y="106" width="137" height="8" fill="#1BF2D8"/>
            <path d="M46 107L183 140V149L46 114.5" stroke="#1BF2D8"/>
            <rect width="137" height="8" transform="matrix(-1 0 0 1 368 48)" fill="#1BF2D8"/>
            <path d="M368 49L231 82V91L368 56.5" stroke="#1BF2D8"/>
            </svg>